# xmcd
#
# Track frame offsets:
# 150
# 14797
# 27442
# 44002
# 54040
# 73335
# 88000
# 106687
# 117600
# 129387
# 145260
# 162870
# 183377
# 196737
# 209407
# 228340
# 243310
# 256682
# 272347
# 285100
# 298150
# 312955
#
# Disc length: 4349 seconds
#
#
# Revision: 0
# Processed by: cddbd v1.4PL0 Copyright (c) Steve Scherf et al.
# Submitted via: FreeRIP 2.35 
#
DISCID=3d10fb16
DTITLE=Piano Red - Blues, Blues, Blues
DYEAR=1974
DGENRE=Blues
TTITLE0=Ain't Gonin' To Be Your Low Down Dog No More
TTITLE1=I've Got My Fingers Crossed
TTITLE2=Everyday I Have The Blues
TTITLE3=It's A Sin To Tell A Lie
TTITLE4=Please, Baby, Come On Home
TTITLE5=Corrine, Corrina
TTITLE6=Blues, Blues, Blues
TTITLE7=Right String Baby, But The Wrong Yo Yo
TTITLE8=Do She Love Me
TTITLE9=Boogie Time: Pinetop's Boogie/Red Boogie
TTITLE10=Sloppy Drunk (studio)
TTITLE11=Blues, Blues Blues (studio)
TTITLE12=Pinetop's Boogie (studio)
TTITLE13=Doin' It (studio)
TTITLE14=When Things Go Wrong With You (studio)
TTITLE15=Dr. Feelgood (studio)
TTITLE16=Red's Boogie (studio)
TTITLE17=Dupree Blues (studio)
TTITLE18=Just Another World Goin' Round (studio)
TTITLE19=Whiskey (studio)
TTITLE20=You Got The Thing On Me (studio)
TTITLE21=Goodbye (studio)
EXTD=Williiam Perryman aka: Dr. Feelgood\nRecorded at Montreux Jazz Fest July 3, 1974\nBlack Lion Label
EXTT0=
EXTT1=
EXTT2=
EXTT3=
EXTT4=
EXTT5=
EXTT6=
EXTT7=
EXTT8=
EXTT9=
EXTT10=
EXTT11=
EXTT12=
EXTT13=
EXTT14=
EXTT15=
EXTT16=
EXTT17=
EXTT18=
EXTT19=
EXTT20=
EXTT21=
PLAYORDER=
